<?xml version="1.0" encoding="UTF-8" standalone="no"?>
<!DOCTYPE svg PUBLIC "-//W3C//DTD SVG 1.1//EN"
 "http://www.w3.org/Graphics/SVG/1.1/DTD/svg11.dtd">
<!-- Generated by graphviz version 12.1.1 (20240910.0053)
 -->
<!-- Title: INFRA Pages: 1 -->
<svg width="1260pt" height="296pt"
 viewBox="0.00 0.00 1259.50 296.00" xmlns="http://www.w3.org/2000/svg" xmlns:xlink="http://www.w3.org/1999/xlink">
<g id="graph0" class="graph" transform="scale(1 1) rotate(0) translate(4 292)">
<title>INFRA</title>
<polygon fill="white" stroke="none" points="-4,4 -4,-292 1255.5,-292 1255.5,4 -4,4"/>
<!-- WebsiteBucket -->
<g id="node1" class="node">
<title>WebsiteBucket</title>
<path fill="#fff5cd" stroke="black" stroke-width="2" d="M180.55,-65.45C180.55,-69.07 150.81,-72 114.2,-72 77.59,-72 47.85,-69.07 47.85,-65.45 47.85,-65.45 47.85,-6.55 47.85,-6.55 47.85,-2.93 77.59,0 114.2,0 150.81,0 180.55,-2.93 180.55,-6.55 180.55,-6.55 180.55,-65.45 180.55,-65.45"/>
<path fill="none" stroke="black" stroke-width="2" d="M180.55,-65.45C180.55,-61.84 150.81,-58.91 114.2,-58.91 77.59,-58.91 47.85,-61.84 47.85,-65.45"/>
<text text-anchor="middle" x="114.2" y="-40.2" font-family="Arial" font-size="14.00">WebsiteBucket</text>
<text text-anchor="middle" x="114.2" y="-23.4" font-family="Arial" font-size="14.00">(AWS::S3::Bucket)</text>
</g>
<!-- Distribution -->
<g id="node2" class="node">
<title>Distribution</title>
<path fill="#e78f81" stroke="black" stroke-width="2" d="M275.23,-180C275.23,-180 87.17,-180 87.17,-180 81.17,-180 75.17,-174 75.17,-168 75.17,-168 75.17,-120 75.17,-120 75.17,-114 81.17,-108 87.17,-108 87.17,-108 275.23,-108 275.23,-108 281.23,-108 287.23,-114 287.23,-120 287.23,-120 287.23,-168 287.23,-168 287.23,-174 281.23,-180 275.23,-180"/>
<text text-anchor="middle" x="181.2" y="-148.2" font-family="Arial" font-size="14.00">Distribution</text>
<text text-anchor="middle" x="181.2" y="-131.4" font-family="Arial" font-size="14.00">(AWS::CloudFront::Distribution)</text>
</g>
<!-- Distribution&#45;&gt;WebsiteBucket -->
<g id="edge1" class="edge">
<title>Distribution&#45;&gt;WebsiteBucket</title>
<path fill="none" stroke="black" d="M158.89,-107.7C153.63,-99.39 147.96,-90.42 142.49,-81.75"/>
<polygon fill="black" stroke="black" points="145.52,-80 137.22,-73.42 139.61,-83.74 145.52,-80"/>
</g>
<!-- DeployWebsite -->
<g id="node3" class="node">
<title>DeployWebsite</title>
<path fill="#e6e6e6" stroke="black" stroke-width="2" d="M216.4,-288C216.4,-288 12,-288 12,-288 6,-288 0,-282 0,-276 0,-276 0,-228 0,-228 0,-222 6,-216 12,-216 12,-216 216.4,-216 216.4,-216 222.4,-216 228.4,-222 228.4,-228 228.4,-228 228.4,-276 228.4,-276 228.4,-282 222.4,-288 216.4,-288"/>
<text text-anchor="middle" x="114.2" y="-256.2" font-family="Arial" font-size="14.00">DeployWebsite</text>
<text text-anchor="middle" x="114.2" y="-239.4" font-family="Arial" font-size="14.00">(Custom::CDKBucketDeployment)</text>
</g>
<!-- DeployWebsite&#45;&gt;WebsiteBucket -->
<g id="edge2" class="edge">
<title>DeployWebsite&#45;&gt;WebsiteBucket</title>
<path fill="none" stroke="black" d="M84.27,-215.58C76.9,-204.82 70.03,-192.52 66.2,-180 56.83,-149.4 56.83,-138.6 66.2,-108 68.93,-99.1 73.19,-90.31 78.07,-82.11"/>
<polygon fill="black" stroke="black" points="81.01,-84.01 83.45,-73.7 75.11,-80.23 81.01,-84.01"/>
</g>
<!-- DeployWebsite&#45;&gt;Distribution -->
<g id="edge3" class="edge">
<title>DeployWebsite&#45;&gt;Distribution</title>
<path fill="none" stroke="black" d="M136.51,-215.7C141.76,-207.39 147.43,-198.42 152.91,-189.75"/>
<polygon fill="black" stroke="black" points="155.79,-191.74 158.18,-181.42 149.88,-188 155.79,-191.74"/>
</g>
<!-- Vpc -->
<g id="node4" class="node">
<title>Vpc</title>
<path fill="#e6e6e6" stroke="black" stroke-width="2" d="M635.6,-72C635.6,-72 530.8,-72 530.8,-72 524.8,-72 518.8,-66 518.8,-60 518.8,-60 518.8,-12 518.8,-12 518.8,-6 524.8,0 530.8,0 530.8,0 635.6,0 635.6,0 641.6,0 647.6,-6 647.6,-12 647.6,-12 647.6,-60 647.6,-60 647.6,-66 641.6,-72 635.6,-72"/>
<text text-anchor="middle" x="583.2" y="-40.2" font-family="Arial" font-size="14.00">Vpc</text>
<text text-anchor="middle" x="583.2" y="-23.4" font-family="Arial" font-size="14.00">(AWS::EC2::VPC)</text>
</g>
<!-- LoadBalancer -->
<g id="node5" class="node">
<title>LoadBalancer</title>
<path fill="#e78f81" stroke="black" stroke-width="2" d="M603.28,-180C603.28,-180 317.12,-180 317.12,-180 311.12,-180 305.12,-174 305.12,-168 305.12,-168 305.12,-120 305.12,-120 305.12,-114 311.12,-108 317.12,-108 317.12,-108 603.28,-108 603.28,-108 609.28,-108 615.28,-114 615.28,-120 615.28,-120 615.28,-168 615.28,-168 615.28,-174 609.28,-180 603.28,-180"/>
<text text-anchor="middle" x="460.2" y="-148.2" font-family="Arial" font-size="14.00">LoadBalancer</text>
<text text-anchor="middle" x="460.2" y="-131.4" font-family="Arial" font-size="14.00">(AWS::ElasticLoadBalancingV2::LoadBalancer)</text>
</g>
<!-- LoadBalancer&#45;&gt;Vpc -->
<g id="edge4" class="edge">
<title>LoadBalancer&#45;&gt;Vpc</title>
<path fill="none" stroke="black" d="M501.16,-107.7C511.63,-98.67 523.01,-88.87 533.86,-79.52"/>
<polygon fill="black" stroke="black" points="535.98,-82.31 541.27,-73.13 531.41,-77.01 535.98,-82.31"/>
</g>
<!-- Cluster -->
<g id="node6" class="node">
<title>Cluster</title>
<path fill="#b7e0ff" stroke="black" stroke-width="2" d="M767.15,-180C767.15,-180 645.25,-180 645.25,-180 639.25,-180 633.25,-174 633.25,-168 633.25,-168 633.25,-120 633.25,-120 633.25,-114 639.25,-108 645.25,-108 645.25,-108 767.15,-108 767.15,-108 773.15,-108 779.15,-114 779.15,-120 779.15,-120 779.15,-168 779.15,-168 779.15,-174 773.15,-180 767.15,-180"/>
<text text-anchor="middle" x="706.2" y="-148.2" font-family="Arial" font-size="14.00">Cluster</text>
<text text-anchor="middle" x="706.2" y="-131.4" font-family="Arial" font-size="14.00">(AWS::ECS::Cluster)</text>
</g>
<!-- Cluster&#45;&gt;Vpc -->
<g id="edge5" class="edge">
<title>Cluster&#45;&gt;Vpc</title>
<path fill="none" stroke="black" d="M665.24,-107.7C654.77,-98.67 643.39,-88.87 632.54,-79.52"/>
<polygon fill="black" stroke="black" points="634.98,-77.01 625.12,-73.13 630.41,-82.31 634.98,-77.01"/>
</g>
<!-- TaskRole -->
<g id="node7" class="node">
<title>TaskRole</title>
<path fill="#e6e6e6" stroke="black" stroke-width="2" d="M911.43,-180C911.43,-180 808.97,-180 808.97,-180 802.97,-180 796.97,-174 796.97,-168 796.97,-168 796.97,-120 796.97,-120 796.97,-114 802.97,-108 808.97,-108 808.97,-108 911.43,-108 911.43,-108 917.43,-108 923.43,-114 923.43,-120 923.43,-120 923.43,-168 923.43,-168 923.43,-174 917.43,-180 911.43,-180"/>
<text text-anchor="middle" x="860.2" y="-148.2" font-family="Arial" font-size="14.00">TaskRole</text>
<text text-anchor="middle" x="860.2" y="-131.4" font-family="Arial" font-size="14.00">(AWS::IAM::Role)</text>
</g>
<!-- ExecutionRole -->
<g id="node8" class="node">
<title>ExecutionRole</title>
<path fill="#e6e6e6" stroke="black" stroke-width="2" d="M1055.43,-180C1055.43,-180 952.97,-180 952.97,-180 946.97,-180 940.97,-174 940.97,-168 940.97,-168 940.97,-120 940.97,-120 940.97,-114 946.97,-108 952.97,-108 952.97,-108 1055.43,-108 1055.43,-108 1061.43,-108 1067.43,-114 1067.43,-120 1067.43,-120 1067.43,-168 1067.43,-168 1067.43,-174 1061.43,-180 1055.43,-180"/>
<text text-anchor="middle" x="1004.2" y="-148.2" font-family="Arial" font-size="14.00">ExecutionRole</text>
<text text-anchor="middle" x="1004.2" y="-131.4" font-family="Arial" font-size="14.00">(AWS::IAM::Role)</text>
</g>
<!-- Service -->
<g id="node9" class="node">
<title>Service</title>
<path fill="#b7e0ff" stroke="black" stroke-width="2" d="M845.32,-288C845.32,-288 721.08,-288 721.08,-288 715.08,-288 709.08,-282 709.08,-276 709.08,-276 709.08,-228 709.08,-228 709.08,-222 715.08,-216 721.08,-216 721.08,-216 845.32,-216 845.32,-216 851.32,-216 857.32,-222 857.32,-228 857.32,-228 857.32,-276 857.32,-276 857.32,-282 851.32,-288 845.32,-288"/>
<text text-anchor="middle" x="783.2" y="-256.2" font-family="Arial" font-size="14.00">Service</text>
<text text-anchor="middle" x="783.2" y="-239.4" font-family="Arial" font-size="14.00">(AWS::ECS::Service)</text>
</g>
<!-- Service&#45;&gt;LoadBalancer -->
<g id="edge7" class="edge">
<title>Service&#45;&gt;LoadBalancer</title>
<path fill="none" stroke="black" d="M708.69,-226.55C670.3,-213.95 622.57,-198.29 579.23,-184.06"/>
<polygon fill="black" stroke="black" points="580.35,-180.75 569.75,-180.95 578.16,-187.4 580.35,-180.75"/>
</g>
<!-- Service&#45;&gt;Cluster -->
<g id="edge6" class="edge">
<title>Service&#45;&gt;Cluster</title>
<path fill="none" stroke="black" d="M757.56,-215.7C751.39,-207.21 744.72,-198.03 738.3,-189.19"/>
<polygon fill="black" stroke="black" points="741.33,-187.4 732.62,-181.37 735.66,-191.51 741.33,-187.4"/>
</g>
<!-- Service&#45;&gt;TaskRole -->
<g id="edge8" class="edge">
<title>Service&#45;&gt;TaskRole</title>
<path fill="none" stroke="black" d="M808.84,-215.7C815.01,-207.21 821.68,-198.03 828.1,-189.19"/>
<polygon fill="black" stroke="black" points="830.74,-191.51 833.78,-181.37 825.07,-187.4 830.74,-191.51"/>
</g>
<!-- Service&#45;&gt;ExecutionRole -->
<g id="edge9" class="edge">
<title>Service&#45;&gt;ExecutionRole</title>
<path fill="none" stroke="black" d="M857.53,-215.72C878.88,-205.56 902.36,-194.34 930.47,-180.82"/>
<polygon fill="black" stroke="black" points="931.75,-184.09 939.25,-176.6 928.72,-177.78 931.75,-184.09"/>
</g>
<!-- WafProtection -->
<g id="node10" class="node">
<title>WafProtection</title>
<path fill="#e6e6e6" stroke="black" stroke-width="2" d="M535.54,-288C535.54,-288 384.86,-288 384.86,-288 378.86,-288 372.86,-282 372.86,-276 372.86,-276 372.86,-228 372.86,-228 372.86,-222 378.86,-216 384.86,-216 384.86,-216 535.54,-216 535.54,-216 541.54,-216 547.54,-222 547.54,-228 547.54,-228 547.54,-276 547.54,-276 547.54,-282 541.54,-288 535.54,-288"/>
<text text-anchor="middle" x="460.2" y="-256.2" font-family="Arial" font-size="14.00">WafProtection</text>
<text text-anchor="middle" x="460.2" y="-239.4" font-family="Arial" font-size="14.00">(AWS::WAFv2::WebACL)</text>
</g>
<!-- WafProtection&#45;&gt;LoadBalancer -->
<g id="edge10" class="edge">
<title>WafProtection&#45;&gt;LoadBalancer</title>
<path fill="none" stroke="black" d="M460.2,-215.7C460.2,-207.93 460.2,-199.57 460.2,-191.43"/>
<polygon fill="black" stroke="black" points="463.7,-191.66 460.2,-181.66 456.7,-191.66 463.7,-191.66"/>
</g>
<!-- Database -->
<g id="node11" class="node">
<title>Database</title>
<path fill="#ffcfb3" stroke="black" stroke-width="2" d="M1054.89,-281.45C1054.89,-285.07 1014.69,-288 965.2,-288 915.71,-288 875.51,-285.07 875.51,-281.45 875.51,-281.45 875.51,-222.55 875.51,-222.55 875.51,-218.93 915.71,-216 965.2,-216 1014.69,-216 1054.89,-218.93 1054.89,-222.55 1054.89,-222.55 1054.89,-281.45 1054.89,-281.45"/>
<path fill="none" stroke="black" stroke-width="2" d="M1054.89,-281.45C1054.89,-277.84 1014.69,-274.91 965.2,-274.91 915.71,-274.91 875.51,-277.84 875.51,-281.45"/>
<text text-anchor="middle" x="965.2" y="-256.2" font-family="Arial" font-size="14.00">Database</text>
<text text-anchor="middle" x="965.2" y="-239.4" font-family="Arial" font-size="14.00">(AWS::DynamoDB::Table)</text>
</g>
<!-- Auth -->
<g id="node12" class="node">
<title>Auth</title>
<path fill="#e6e6e6" stroke="black" stroke-width="2" d="M1239.5,-288C1239.5,-288 1084.9,-288 1084.9,-288 1078.9,-288 1072.9,-282 1072.9,-276 1072.9,-276 1072.9,-228 1072.9,-228 1072.9,-222 1078.9,-216 1084.9,-216 1084.9,-216 1239.5,-216 1239.5,-216 1245.5,-216 1251.5,-222 1251.5,-228 1251.5,-228 1251.5,-276 1251.5,-276 1251.5,-282 1245.5,-288 1239.5,-288"/>
<text text-anchor="middle" x="1162.2" y="-256.2" font-family="Arial" font-size="14.00">Auth</text>
<text text-anchor="middle" x="1162.2" y="-239.4" font-family="Arial" font-size="14.00">(AWS::Cognito::UserPool)</text>
</g>
</g>
</svg>
